<?xml version="1.0" encoding="utf-8"?>
<!-- Generator: Adobe Illustrator 16.0.3, SVG Export Plug-In . SVG Version: 6.00 Build 0)  -->
<svg version="1.2" baseProfile="tiny" xmlns="http://www.w3.org/2000/svg" xmlns:xlink="http://www.w3.org/1999/xlink" x="0px"
	 y="0px" width="50px" height="50px" viewBox="0 0 50 50" xml:space="preserve">
<g id="Ebene_1" display="none">
	<path display="inline" fill="#3C3C3C" d="M0.706,24.02L19.338,4.854c0,0,2.218-2.341,2.218,0.198c0,2.54,0,8.691,0,8.691
		s1.492,0,3.786,0c6.564,0,18.483,0,23.34,0c0,0,1.318-0.345,1.318,1.658c0,2.002,0,18.267,0,19.703c0,1.438-1.1,1.395-1.1,1.395
		c-4.731,0-17.063,0-23.39,0c-2.069,0-3.412,0-3.412,0s0,4.931,0,8.029c0,3.087-2.301,0.758-2.301,0.758S2.375,28.42,0.559,26.608
		C-0.779,25.27,0.706,24.02,0.706,24.02z"/>
</g>
<g id="Ebene_2">
	<path fill="#3C3C3C" d="M37.629,23.125h-1.875H24.558V17.5c0-4.135-3.365-7.5-7.5-7.5c-4.136,0-7.5,3.365-7.5,7.5v5.625h1.875V17.5
		c0-3.103,2.523-5.625,5.625-5.625s5.625,2.523,5.625,5.625v5.625h-0.054c-1.55,0-2.812,1.262-2.812,2.813v11.25
		c0,1.551,1.262,2.813,2.812,2.813h15c1.551,0,2.813-1.262,2.813-2.813v-11.25C40.442,24.387,39.18,23.125,37.629,23.125z
		 M30.129,36.695c-1.035,0-1.874-0.841-1.874-1.875c0-0.692,0.378-1.29,0.938-1.615V31.07c0-0.519,0.419-0.938,0.937-0.938
		c0.519,0,0.938,0.419,0.938,0.938v2.135c0.559,0.325,0.938,0.923,0.938,1.615C32.004,35.854,31.164,36.695,30.129,36.695z"/>
</g>
</svg>
